<svg width="27" height="26" viewBox="0 0 27 26" fill="none" xmlns="http://www.w3.org/2000/svg">
<path fill-rule="evenodd" clip-rule="evenodd" d="M0.117307 0.00351232C8.83604 -0.00585152 17.5548 0.00351232 26.2735 0.0315478C26.3028 0.0595832 26.3321 0.0876187 26.3614 0.115654C26.4005 0.41468 26.4005 0.713763 26.3614 1.01279C26.3126 1.0595 26.2637 1.10626 26.2148 1.15297C17.5352 1.19037 8.85557 1.19037 0.175953 1.15297C0.127101 1.10626 0.0781899 1.0595 0.0293377 1.01279C-0.00977923 0.713763 -0.00977923 0.41468 0.0293377 0.115654C0.0713869 0.0851516 0.10071 0.0477523 0.117307 0.00351232Z" fill="#252A32"/>
<path fill-rule="evenodd" clip-rule="evenodd" d="M9.79371 1.7417H16.5967C16.6065 2.65773 16.5967 3.57354 16.5673 4.48918C16.4989 4.55461 16.4305 4.61999 16.3621 4.68542C15.3064 4.69479 14.2508 4.70409 13.1952 4.71346C12.0953 4.72215 11.0006 4.69411 9.911 4.62935C9.87429 4.5873 9.84497 4.54054 9.82304 4.48918C9.79371 3.57354 9.78392 2.65773 9.79371 1.7417Z" fill="#262B32"/>
<path fill-rule="evenodd" clip-rule="evenodd" d="M14.8375 7.57306C14.7649 7.66917 14.7258 7.78131 14.7202 7.90949C13.6797 7.92738 12.6436 7.9087 11.612 7.85342C11.3855 7.00591 11.1313 6.16484 10.8496 5.33023C12.4135 5.25548 13.9774 5.25548 15.5413 5.33023C15.2702 6.06806 15.0356 6.81566 14.8375 7.57306Z" fill="#242931"/>
<path fill-rule="evenodd" clip-rule="evenodd" d="M14.8374 7.573C14.8271 7.70538 14.8076 7.83619 14.7787 7.96549C13.7017 8.00211 12.6461 7.96477 11.6118 7.85335C12.6434 7.90864 13.6795 7.92731 14.7201 7.90942C14.7256 7.78125 14.7647 7.6691 14.8374 7.573Z" fill="#D0D1D3"/>
<path fill-rule="evenodd" clip-rule="evenodd" d="M14.4857 8.63843C14.077 8.5638 13.6469 8.52645 13.1955 8.52629C12.744 8.52645 12.3139 8.5638 11.9053 8.63843C11.8522 8.59867 11.8327 8.5426 11.8466 8.47021H14.5443C14.5582 8.5426 14.5387 8.59867 14.4857 8.63843Z" fill="#B4B5B8"/>
<path fill-rule="evenodd" clip-rule="evenodd" d="M14.4857 8.63851C14.2806 9.22714 14.0851 9.82525 13.8992 10.4328C13.8685 10.4716 13.8293 10.4996 13.7819 10.5169C13.3714 10.5543 12.9609 10.5543 12.5504 10.5169C12.5211 10.4889 12.4917 10.4608 12.4624 10.4328C12.2434 9.84342 12.0577 9.24536 11.9053 8.63851C12.3139 8.56388 12.744 8.52654 13.1955 8.52637C13.6469 8.52654 14.0771 8.56388 14.4857 8.63851Z" fill="#242931"/>
<path fill-rule="evenodd" clip-rule="evenodd" d="M25.6284 23.8337C25.7144 23.7862 25.7633 23.7114 25.775 23.6094C25.8226 23.3745 25.8128 23.1502 25.7457 22.9365C25.5729 22.2575 25.1233 21.8556 24.3968 21.731C16.8315 21.7123 9.26615 21.6936 1.70081 21.6749C0.986501 21.5055 0.478216 21.1037 0.176013 20.4694C0.0218322 19.9256 0.0218322 19.3835 0.176013 18.8433C0.491763 18.159 1.03911 17.7572 1.8181 17.6378C9.38345 17.6191 16.9488 17.6004 24.5141 17.5817C25.4161 17.3362 25.8364 16.7661 25.775 15.8716C25.6084 15.2637 25.2076 14.8805 24.5728 14.7221C20.7413 14.7035 16.9097 14.6847 13.0781 14.6661C13.0293 14.6193 12.9804 14.5726 12.9315 14.5259C12.9022 13.4046 12.8924 12.2832 12.9022 11.1616H13.4887C13.4789 12.0777 13.4887 12.9935 13.518 13.9091C13.5399 13.9605 13.5693 14.0072 13.606 14.0493C17.2225 14.0679 20.839 14.0867 24.4555 14.1053C26.0786 14.5271 26.6552 15.5083 26.1855 17.0491C25.8272 17.69 25.2701 18.0731 24.5141 18.1985C16.9293 18.2172 9.34433 18.2359 1.75946 18.2546C0.627118 18.7095 0.324094 19.4665 0.850443 20.5255C1.07934 20.8265 1.38236 21.0227 1.75946 21.1142C9.40473 21.1148 17.0483 21.1522 24.6901 21.2264C25.7368 21.4712 26.3037 22.1067 26.3908 23.1328C26.35 24.1988 25.8026 24.8903 24.7487 25.2074C16.5383 25.2448 8.32782 25.2448 0.117367 25.2074C-0.0390424 25.0392 0.117367 24.7028 0.117367 24.7028C8.24964 24.6841 16.3819 24.6654 24.5141 24.6467C25.013 24.534 25.3844 24.263 25.6284 23.8337Z" fill="#272C34"/>
<path fill-rule="evenodd" clip-rule="evenodd" d="M0.175953 18.8433C0.0217724 19.3834 0.0217724 19.9255 0.175953 20.4693C0.100124 20.3941 0.0512713 20.3006 0.0293377 20.189C-0.00977924 19.8339 -0.00977924 19.4787 0.0293377 19.1236C0.0512713 19.012 0.100124 18.9185 0.175953 18.8433Z" fill="#54575E"/>
<path fill-rule="evenodd" clip-rule="evenodd" d="M25.7457 22.9365C25.8129 23.1502 25.8227 23.3745 25.775 23.6094C25.7633 23.7114 25.7144 23.7862 25.6284 23.8337C25.7272 23.5434 25.7662 23.2444 25.7457 22.9365Z" fill="#7B7E83"/>
</svg>
